<svg xmlns="http://www.w3.org/2000/svg" xmlns:xlink="http://www.w3.org/1999/xlink" width="832" height="357.65"><rect width="832" height="357.65" rx="0" ry="0" class="a"/><svg height="325.65" viewBox="0 0 80 32.565" width="800" x="16" xmlns="http://www.w3.org/2000/svg" xmlns:xlink="http://www.w3.org/1999/xlink" y="16"><style>@keyframes e{0%{transform:translateX(0)}to{transform:translateX(-80px)}}.a{fill:#282d35}.c,.g{fill:#b9c0cb;white-space:pre}.g{font-weight:700}</style><g font-family="Monaco,Consolas,Menlo,'Bitstream Vera Sans Mono','Powerline Symbols',monospace" font-size="1.67"><defs><symbol id="1"><text x="12.024" y="1.67" class="c">█</text></symbol><symbol id="2"><text x="3.006" y="1.67" class="c">█</text><text x="6.012" y="1.67" class="c">█</text><text x="9.018" y="1.67" class="c">█</text><text x="12.024" y="1.67" class="c">█</text></symbol><symbol id="a"><path fill="transparent" d="M0 0h80v16H0z"/></symbol></defs><path class="a" d="M0 0h80v32.565H0z"/><g style="animation-duration:.256502s;animation-iteration-count:infinite;animation-name:e;animation-timing-function:steps(1,end)"><svg width="160"><svg><use xlink:href="#a"/></svg><svg x="80"><use xlink:href="#a"/><text x="2.004" y="1.67" class="g">条形图</text><text x="6.012" y="1.67" class="g">(垂直)</text><use xlink:href="#1" y="4.342"/><use xlink:href="#1" y="6.513"/><text x="6.012" y="10.354" class="c">▌</text><text x="12.024" y="10.354" class="c">█</text><text x="6.012" y="12.525" class="c">█</text><text x="9.018" y="12.525" class="c">▌</text><text x="12.024" y="12.525" class="c">█</text><text x="6.012" y="14.696" class="c">█</text><text x="9.018" y="14.696" class="c">█</text><text x="12.024" y="14.696" class="c">█</text><text x="3.006" y="16.867" class="c">▌</text><text x="6.012" y="16.867" class="c">█</text><text x="9.018" y="16.867" class="c">█</text><text x="12.024" y="16.867" class="c">█</text><use xlink:href="#2" y="17.368"/><use xlink:href="#2" y="19.539"/><use xlink:href="#2" y="21.71"/><text x="2.004" y="25.551" class="c">─────────────</text><text x="3.006" y="27.722" class="c">Jan</text><text x="8.016" y="27.722" class="c">Feb</text><text x="13.026" y="27.722" class="c">Mar</text><text x="18.036" y="27.722" class="c">Apr</text><text x="2.004" y="29.893" class="c">120</text><text x="6.012" y="29.893" class="c">245</text><text x="10.02" y="29.893" class="c">189</text><text x="14.028" y="29.893" class="c">320</text></svg></svg></g></g></svg></svg>